HIERARCHY
ROOT Pelvis
{
	OFFSET 0.000000 0.000000 0.000000
	CHANNELS 6 Xposition Yposition Zposition Xrotation Yrotation Zrotation
	JOINT LeftUpLeg_virtual
	{
		OFFSET 0.000000 0.000000 0.000000
		CHANNELS 3 Xrotation Yrotation Zrotation
		JOINT LeftUpLeg
		{
			OFFSET 18.735201 -5.666702 -4.541200
			CHANNELS 3 Xrotation Yrotation Zrotation
			JOINT LeftLeg
			{
				OFFSET -0.021200 -31.938179 0.493100
				CHANNELS 3 Xrotation Yrotation Zrotation
				JOINT LeftFoot
				{
					OFFSET 0.021200 -31.938179 -4.336299
					CHANNELS 3 Xrotation Yrotation Zrotation
					JOINT LeftToeBase
					{
						OFFSET 0.943001 -26.722000 15.023500
						CHANNELS 3 Xrotation Yrotation Zrotation
						End Site
						{
							OFFSET 0 0 0
						}
					}
				}
			}
		}
	}
	JOINT RightUpLeg_virtual
	{
		OFFSET 0.000000 0.000000 0.000000
		CHANNELS 3 Xrotation Yrotation Zrotation
		JOINT RightUpLeg
		{
			OFFSET -18.735201 -5.666702 -4.541200
			CHANNELS 3 Xrotation Yrotation Zrotation
			JOINT RightLeg
			{
				OFFSET 0.018946 -31.938133 0.493100
				CHANNELS 3 Xrotation Yrotation Zrotation
				JOINT RightFoot
				{
					OFFSET -0.018946 -31.938126 -4.336299
					CHANNELS 3 Xrotation Yrotation Zrotation
					JOINT RightToeBase
					{
						OFFSET -0.943001 -26.722004 15.023500
						CHANNELS 3 Xrotation Yrotation Zrotation
						End Site
						{
							OFFSET 0 0 0
						}
					}
				}
			}
		}
	}
	JOINT Hips_virtual
	{
		OFFSET 0.000000 0.000000 0.000000
		CHANNELS 3 Xrotation Yrotation Zrotation
		JOINT Hips
		{
			OFFSET -0.000000 -0.000000 -0.000000
			CHANNELS 3 Xrotation Yrotation Zrotation
			JOINT Spine
			{
				OFFSET 0.000000 10.199997 -0.299500
				CHANNELS 3 Xrotation Yrotation Zrotation
				JOINT Spine1
				{
					OFFSET 0.000000 11.900002 -1.516600
					CHANNELS 3 Xrotation Yrotation Zrotation
					JOINT Spine2
					{
						OFFSET 0.000000 13.600006 -2.842500
						CHANNELS 3 Xrotation Yrotation Zrotation
						JOINT Neck_virtual
						{
							OFFSET 0.000000 0.000000 0.000000
							CHANNELS 3 Xrotation Yrotation Zrotation
							JOINT Neck
							{
								OFFSET 0.000000 9.624100 -2.890100
								CHANNELS 3 Xrotation Yrotation Zrotation
								JOINT Head
								{
									OFFSET 0.000000 14.068802 -1.351900
									CHANNELS 3 Xrotation Yrotation Zrotation
									End Site
									{
										OFFSET 0 0 0
									}
								}
							}
						}
						JOINT LeftShoulder_virtual
						{
							OFFSET 0.000000 0.000000 0.000000
							CHANNELS 3 Xrotation Yrotation Zrotation
							JOINT LeftShoulder
							{
								OFFSET 15.263000 10.923401 -0.547700
								CHANNELS 3 Xrotation Yrotation Zrotation
								JOINT LeftArm
								{
									OFFSET 25.438599 -2.830597 -13.032500
									CHANNELS 3 Xrotation Yrotation Zrotation
									JOINT LeftForeArm
									{
										OFFSET 29.960503 0.000000 0.000000
										CHANNELS 3 Xrotation Yrotation Zrotation
										JOINT LeftHand
										{
											OFFSET 27.849251 0.000000 0.000000
											CHANNELS 3 Xrotation Yrotation Zrotation
											End Site
											{
												OFFSET 0 0 0
											}
										}
									}
								}
							}
						}
						JOINT RightShoulder_virtual
						{
							OFFSET 0.000000 0.000000 0.000000
							CHANNELS 3 Xrotation Yrotation Zrotation
							JOINT RightShoulder
							{
								OFFSET -15.263000 10.923401 -0.547700
								CHANNELS 3 Xrotation Yrotation Zrotation
								JOINT RightArm
								{
									OFFSET -25.438599 -2.830597 -13.032500
									CHANNELS 3 Xrotation Yrotation Zrotation
									JOINT RightForeArm
									{
										OFFSET -29.960503 0.000000 0.000000
										CHANNELS 3 Xrotation Yrotation Zrotation
										JOINT RightHand
										{
											OFFSET -27.849251 0.000000 0.000000
											CHANNELS 3 Xrotation Yrotation Zrotation
											End Site
											{
												OFFSET 0 0 0
											}
										}
									}
								}
							}
						}
					}
				}
			}
		}
	}
}
MOTION
Frames: 8
Frame Time: 0.03333333
-1.073862 91.560760 5.828178 0.000000 0.000000 0.000000 1.893339 -1.094881 -4.189367 -40.874973 11.062186 14.148719 37.879109 3.772836 1.859268 -11.321556 2.882175 -0.337646 0.000000 0.000000 0.000000 6.358719 -27.495140 3.990127 -24.230210 -13.168618 -13.910146 35.105219 0.813939 -3.873230 -15.714244 -0.913876 5.109408 0.000000 0.000000 0.000000 -0.029770 -11.672411 1.169397 -3.300495 -10.059799 0.137408 4.538239 -0.643965 -1.030568 1.596250 -0.354661 -0.518084 0.000000 0.000000 0.000000 2.594985 1.287646 -0.045647 -0.572433 0.463328 0.809044 0.000000 0.000000 0.000000 1.277584 1.247925 1.033075 0.182855 -1.673008 3.230616 -45.414348 -14.109488 -52.151725 -27.704924 -73.375254 -23.280316 0.000000 0.000000 0.000000 1.585017 -2.597994 0.536434 0.791413 -5.117791 6.702185 -31.640687 56.199814 43.156919 177.298447 72.011777 -177.963980 0.000000 0.000000 0.000000 
-1.077435 91.555672 5.846165 0.000000 0.000000 0.000000 1.899376 -1.076268 -4.184067 -40.866176 11.065358 14.154284 37.878061 3.761402 1.860869 -11.321860 2.870237 -0.342628 0.000000 0.000000 0.000000 6.347896 -27.574881 3.994038 -24.257902 -13.188720 -13.917173 35.114225 0.851520 -3.899843 -15.714643 -0.863320 5.092449 0.000000 0.000000 0.000000 -0.032351 -11.676466 1.172045 -3.318322 -10.077270 0.149949 4.538779 -0.646915 -1.026522 1.595970 -0.357348 -0.515450 0.000000 0.000000 0.000000 2.591849 1.287429 -0.045424 -0.572371 0.464040 0.808389 0.000000 0.000000 0.000000 1.277472 1.248633 1.027528 0.178373 -1.662360 3.201536 -45.386931 -14.110749 -52.128683 -27.613594 -73.343780 -23.194913 0.000000 0.000000 0.000000 1.582060 -2.599758 0.538037 0.786116 -5.112839 6.700199 -31.629582 56.210640 43.132334 177.274172 72.013048 -177.945320 0.000000 0.000000 0.000000 
-1.081185 91.550507 5.866322 0.000000 0.000000 0.000000 1.900691 -1.047569 -4.179246 -40.864479 11.070001 14.160997 37.878921 3.744052 1.864216 -11.320034 2.851581 -0.348604 0.000000 0.000000 0.000000 6.336029 -27.662686 3.998820 -24.288411 -13.210966 -13.924390 35.125559 0.890768 -3.927994 -15.713926 -0.810251 5.074311 0.000000 0.000000 0.000000 -0.035542 -11.681489 1.174505 -3.335832 -10.089750 0.160013 4.539532 -0.650288 -1.021749 1.595381 -0.360446 -0.512214 0.000000 0.000000 0.000000 2.588651 1.286926 -0.044400 -0.572043 0.464874 0.807834 0.000000 0.000000 0.000000 1.277796 1.248654 1.022012 0.174242 -1.652389 3.170896 -45.364867 -14.113741 -52.103582 -27.525990 -73.313174 -23.112351 0.000000 0.000000 0.000000 1.578873 -2.601568 0.539463 0.780888 -5.105406 6.695497 -31.620395 56.216596 43.110969 177.252042 72.016654 -177.928969 0.000000 0.000000 0.000000 
-1.085284 91.544868 5.889004 0.000000 0.000000 0.000000 1.897826 -1.010238 -4.174985 -40.869151 11.075947 14.168620 37.882152 3.721964 1.869023 -11.315873 2.827489 -0.355270 0.000000 0.000000 0.000000 6.323507 -27.756678 4.004373 -24.321009 -13.234888 -13.931727 35.139643 0.931304 -3.957498 -15.711768 -0.755110 5.055077 0.000000 0.000000 0.000000 -0.039278 -11.687861 1.176782 -3.352688 -10.097160 0.167370 4.540576 -0.654288 -1.016214 1.594528 -0.364045 -0.508350 0.000000 0.000000 0.000000 2.585554 1.285970 -0.042687 -0.571368 0.465778 0.807300 0.000000 0.000000 0.000000 1.278698 1.247875 1.016632 0.170669 -1.643236 3.139057 -45.348877 -14.117975 -52.076467 -27.443108 -73.283217 -23.033442 0.000000 0.000000 0.000000 1.575603 -2.603511 0.540623 0.775963 -5.095608 6.687614 -31.613360 56.217901 43.094921 177.233041 72.021558 -177.915336 0.000000 0.000000 0.000000 
-1.089981 91.539658 5.912619 0.000000 0.000000 0.000000 1.891582 -0.965866 -4.171440 -40.879242 11.083080 14.176849 37.887742 3.696387 1.874889 -11.309603 2.799379 -0.362467 0.000000 0.000000 0.000000 6.310334 -27.854116 4.010281 -24.355229 -13.259682 -13.939208 35.156022 0.972911 -3.988152 -15.708291 -0.698216 5.034864 0.000000 0.000000 0.000000 -0.043793 -11.695882 1.178969 -3.369837 -10.099574 0.172781 4.541735 -0.658973 -1.009777 1.593312 -0.368175 -0.503765 0.000000 0.000000 0.000000 2.582626 1.284549 -0.040343 -0.570321 0.466775 0.806741 0.000000 0.000000 0.000000 1.280170 1.246200 1.011572 0.167764 -1.635096 3.106708 -45.339636 -14.122524 -52.047086 -27.365691 -73.253355 -22.958653 0.000000 0.000000 0.000000 1.572195 -2.605584 0.541450 0.771335 -5.083337 6.676182 -31.609330 56.214332 43.085428 177.218055 72.027391 -177.905131 0.000000 0.000000 0.000000 
-1.094828 91.534889 5.937576 0.000000 0.000000 0.000000 1.882535 -0.915851 -4.168717 -40.893896 11.091250 14.185374 37.895279 3.669009 1.881326 -11.301652 2.769161 -0.369894 0.000000 0.000000 0.000000 6.297194 -27.952211 4.016912 -24.389794 -13.284793 -13.946092 35.174921 1.015808 -4.019610 -15.703042 -0.639499 5.014343 0.000000 0.000000 0.000000 -0.049208 -11.706207 1.180988 -3.387706 -10.098275 0.175949 4.542674 -0.664664 -1.002372 1.591537 -0.372971 -0.498410 0.000000 0.000000 0.000000 2.579860 1.282553 -0.037490 -0.568895 0.467830 0.806067 0.000000 0.000000 0.000000 1.282000 1.243532 1.006975 0.165464 -1.628166 3.074341 -45.337751 -14.126670 -52.015217 -27.293730 -73.222640 -22.887764 0.000000 0.000000 0.000000 1.568588 -2.607870 0.541867 0.767037 -5.068757 6.660731 -31.608456 56.206446 43.083406 177.207250 72.033231 -177.898315 0.000000 0.000000 0.000000 
-1.099575 91.531166 5.961910 0.000000 0.000000 0.000000 1.871730 -0.862791 -4.166654 -40.911535 11.100026 14.193968 37.904398 3.641452 1.887948 -11.292512 2.738624 -0.377132 0.000000 0.000000 0.000000 6.284655 -28.047998 4.024529 -24.423606 -13.309577 -13.951747 35.196067 1.060062 -4.051550 -15.695903 -0.579044 4.993994 0.000000 0.000000 0.000000 -0.055094 -11.720443 1.183082 -3.404437 -10.096320 0.178219 4.544160 -0.671650 -0.993994 1.589663 -0.378537 -0.492279 0.000000 0.000000 0.000000 2.577384 1.279878 -0.034294 -0.567040 0.468899 0.805185 0.000000 0.000000 0.000000 1.284151 1.239812 1.002980 0.163838 -1.622510 3.042539 -45.343450 -14.129810 -51.980789 -27.227152 -73.190422 -22.820617 0.000000 0.000000 0.000000 1.564755 -2.610381 0.541744 0.763071 -5.051896 6.640672 -31.611512 56.194777 43.090151 177.201376 72.038306 -177.895391 0.000000 0.000000 0.000000 
-1.104173 91.528549 5.985830 0.000000 0.000000 0.000000 1.860585 -0.809668 -4.165190 -40.930158 11.109018 14.202273 37.915278 3.615474 1.894227 -11.282074 2.709759 -0.383871 0.000000 0.000000 0.000000 6.273480 -28.139037 4.033308 -24.455275 -13.333542 -13.955701 35.219741 1.105639 -4.083549 -15.686281 -0.517044 4.974424 0.000000 0.000000 0.000000 -0.061717 -11.738279 1.185127 -3.420845 -10.093275 0.179332 4.545782 -0.679911 -0.984624 1.587450 -0.384836 -0.485344 0.000000 0.000000 0.000000 2.575215 1.276537 -0.030914 -0.564752 0.469980 0.804018 0.000000 0.000000 0.000000 1.286414 1.235088 0.999641 0.162838 -1.618052 3.011541 -45.355875 -14.131809 -51.943408 -27.164489 -73.156175 -22.755813 0.000000 0.000000 0.000000 1.560748 -2.613110 0.540967 0.759568 -5.032821 6.615552 -31.618838 56.179832 43.106249 177.200556 72.041789 -177.896361 0.000000 0.000000 0.000000 
